<svg xmlns="http://www.w3.org/2000/svg" xmlns:xlink="http://www.w3.org/1999/xlink" width="642" height="408" viewBox="0 0 642 408">
    <defs>
        <path id="ibvw71lbia" d="M0 0H642V408H0z"/>
    </defs>
    <g fill="none" fill-rule="evenodd">
        <g>
            <g transform="translate(-362 -242) translate(362 242)">
                <mask id="yqslkjj4wb" fill="#fff">
                    <use xlink:href="#ibvw71lbia"/>
                </mask>
                <use fill="#FFF" xlink:href="#ibvw71lbia"/>
                <g mask="url(#yqslkjj4wb)">
                    <g transform="translate(-184 27)">
                        <g>
                            <path fill="#DDE3F2" d="M662.489 347.05c-12.508 7.382-29.396-.317-29.396-13.474v-61.2c0-60.092-54.446-109.258-120.992-109.258S391.11 212.284 391.11 272.376c0 35.971-36.236 63.98-77.196 59.327-5.276-.599-10.693-.91-16.213-.91-53.373 0-97.041 29.172-97.041 64.829v11.554c0 3.267-3.043 5.917-6.796 5.916-37.185 0-67.552 19.36-67.552 43.022V575.46h697.316V395.622c0-35.657-43.668-64.83-97.04-64.83-24.51 0-46.971 6.152-64.098 16.259z"/>
                            <path fill="#F7B0AE" d="M528.306 243.33l3.613-5.901s9.6-2.652 8.96-13.55c0 0-.59-4.444-3.418-2.668-2.827 1.777-1.537 1.498-5.567 3.916-4.031 2.418-5.642 7.898-5.778 10.049l-3.3 4.48 5.49 3.673zM359.77 242.151l-3.598-5.91s2.033-9.744-7.957-14.16c0 0-4.225-1.509-3.937 1.816.287 3.326.629 2.051.936 6.74.309 4.687 4.447 8.626 6.299 9.73l2.477 4.982 5.78-3.198zM425.703 294.64c3.418-6.487 3.406-10.78 3.406-10.78l16.698-8.606c-.323 13.2 1.543 16.99.773 22.112-.02.132-20.945-2.598-20.877-2.727"/>
                            <path fill="#F7B0AE" d="M425.788 282.906s17.61 6.762 21.654-4.262c4.044-11.024 9.04-17.576-2.031-22.36-11.073-4.783-14.813-1.38-17.058 1.97-2.246 3.352-7.042 22.61-2.565 24.652"/>
                            <path fill="#555CA3" d="M447.16 279.404s2.758-15.312-13.351-21.16c-11.034-4.007-2.195-12.096-.585-13.334 0 0 8.357 3.44 16.858 7.216 17.843 7.926-.482 25.417-2.922 27.278"/>
                            <path fill="#DC8D39" d="M403.438 407.352c.903 2.339 26.937 2.371 43.667 2.146 7.985-.107 13.853-.272 13.853-.272 1.96.247 7.67-4.916 3.834-27.074-2.529-14.624-1.703-39.349 3.948-57.918.358-1.173.736-2.32 1.13-3.44l.12-.342c4.067-11.459-3.863-22.444-14.202-25.61-2.743-.84-6.154-2.08-9.025-2.569-1.85.727-9.856 4.184-16.258 2.104-3.396-1.105-3.566-2.503-3.161-3.285-15.828-1.515-28.385-2.895-28.385-2.895-8.018 41.73.457 108.73 4.479 119.155"/>
                            <path fill="#DC8D39" d="M350.752 242.113s11.004 33.157 17.006 39.645c4.657 5.034 19.95 23.516 30.776 32.458 3.128 2.587 5.886 4.374 7.905 4.812 9.003 1.947 19.507-14.056 19.507-14.056s-9.171-13.554-38.013-31.576c0 0-20.507-25.95-28.51-32.87l-5.702 1.044-2.969.543zM532.494 241.775s-6.238 13.011-13.755 26.075c-6.973 12.116-15.215 24.298-16.338 25.66-5.26 6.383-25.974 24.537-35.415 31.196-2.248 1.587-3.859 2.522-4.467 2.486-34.562-1.941-24.308-30.016-24.308-30.016s29.678-10.997 47.984-19.551c0 0 12.767-15.536 17.539-21.104 4.676-5.456 20.257-22.993 20.257-22.993l5.119 4.963 3.384 3.284z"/>
                            <path fill="#AD4926" d="M447.105 409.499c7.985-.108 13.853-.273 13.853-.273 1.96.247 7.67-4.916 3.834-27.074-2.529-14.624-1.703-39.349 3.948-57.918-6.42 8.61-17.173 24.145-17.44 37.776-.376 19.117 7.877 35.987 3.375 40.86-2.46 2.665-5.404 5.029-7.57 6.629M532.494 241.775s-6.238 13.011-13.755 26.075c-6.973 12.116-15.215 24.298-16.338 25.66-5.26 6.383-25.974 24.537-35.415 31.196 4.57-6.483 17.166-23.776 27.995-33.195 11.479-9.985 29.097-43.258 34.129-53.02l3.384 3.284zM350.752 242.113s11.004 33.157 17.006 39.645c4.657 5.034 19.95 23.516 30.776 32.458.375-2.681.51-4.603.152-4.96-1.25-1.25-27.26-29.992-30.51-32.991-2.829-2.61-12.094-28.114-14.455-34.695l-2.969.543z"/>
                            <path fill="#FFF" d="M428.076 280.018s8.736-1.002 9.345-2.59c0 0-7.545-2.356-11.984-2.4 0 0-.841 3.667 2.639 4.99z"/>
                            <path fill="#F0D170" d="M310.924 181.039s6.223 1.345 10.141-3.487l3.168 5.082s-7.086 4.749-12.838 2.582l-.471-4.177zM568.459 213.604s4.917-4.042 3.557-10.11l5.953.671s-.671 8.5-5.94 11.663l-3.57-2.224z"/>
                            <path fill="#D25C2A" d="M568.326 147.108s4.917-4.042 3.558-10.111l5.953.672s-.672 8.5-5.941 11.662l-3.57-2.223z"/>
                            <path fill="#F0D170" d="M396.032.233s2.06 6.02 8.224 6.879l-2.719 5.335s-7.728-3.613-8.842-9.654l3.337-2.56z"/>
                            <path fill="#D25C2A" d="M390.252 203.554s2.06 6.02 8.224 6.878l-2.72 5.335s-7.727-3.612-8.84-9.653l3.336-2.56zM325.852 299.163s2.06 6.02 8.224 6.879l-2.72 5.335s-7.727-3.613-8.84-9.654l3.336-2.56zM240.508 214.685s2.06 6.02 8.224 6.88l-2.72 5.334s-7.727-3.612-8.84-9.654l3.336-2.56z"/>
                            <path fill="#555CA3" d="M627.211 82.402s2.061 6.021 8.224 6.88l-2.719 5.334s-7.728-3.612-8.841-9.653l3.336-2.56zM237.62 139.769s5.283 3.552 10.713.513l1.06 5.893s-8.342 1.79-12.883-2.352l1.11-4.054z"/>
                            <path fill="#F0D170" d="M493.085 351.314s6.224 1.345 10.142-3.487l3.167 5.082s-7.085 4.75-12.837 2.583l-.472-4.178z"/>
                            <path fill="#D25C2A" d="M446.078 12.81s2.06 6.02 8.223 6.878l-2.718 5.335s-7.728-3.612-8.842-9.653l3.337-2.56zM425.906 180.977s2.06 6.02 8.224 6.879l-2.719 5.334s-7.727-3.612-8.842-9.653l3.337-2.56z"/>
                            <path fill="#555CA3" d="M448.605 218.344s5.283 3.552 10.712.513l1.06 5.893s-8.341 1.79-12.882-2.352l1.11-4.054zM620.458 187.083s5.282 3.553 10.712.514l1.06 5.893s-8.342 1.79-12.883-2.351l1.11-4.056z"/>
                            <path fill="#D25C2A" d="M217.256 51.295s21.975 9.34 20.474 23.415c-1.5 14.074 7.66 18.15 13.661 20.774 6.002 2.624 6.377 14.245 6.377 14.245h2.136s-.653-13.231-9.336-17.274c-11.988-5.582-10.913-13.986-10.913-13.986s1.826-16.255-11.803-23.379l-10.596-5.123v1.328z"/>
                            <path fill="#F0D170" d="M641.669 124.182s-21.974 9.341-20.474 23.415-7.66 18.15-13.661 20.774c-6.002 2.624-6.377 14.245-6.377 14.245h-2.136s.653-13.231 9.336-17.274c11.988-5.582 10.913-13.985 10.913-13.985s-1.826-16.256 11.803-23.38l10.596-5.123v1.328z"/>
                        </g>
                        <circle cx="436.386" cy="268.139" r="1" fill="#151515"/>
                        <circle cx="430.042" cy="265.497" r="1" fill="#151515"/>
                    </g>
                </g>
            </g>
        </g>
    </g>
</svg>
