<svg xmlns="http://www.w3.org/2000/svg" width="22" height="21" viewBox="0 0 22 21">
    <g fill="none" fill-rule="evenodd">
        <g>
            <g transform="translate(-580 -568) translate(580 568)">
                <g fill="#417505">
                    <path d="M10.74.018C4.826.018.018 4.676.018 10.402s4.808 10.384 10.72 10.384c5.911 0 10.72-4.658 10.72-10.384S16.65.018 10.74.018zm0 19.13c-4.98 0-9.03-3.924-9.03-8.746 0-4.823 4.05-8.746 9.03-8.746 4.978 0 9.029 3.923 9.029 8.746 0 4.822-4.05 8.746-9.03 8.746z"/>
                </g>
                <circle cx="10.845" cy="10.818" r="10" fill="#417505"/>
                <path fill="#FFF" d="M15.383 6.114l-6.634 6.547-3.287-2.306c-.417-.292-1-.202-1.303.202-.302.405-.209.97.209 1.263l3.937 2.761c.165.116.357.172.548.172.243 0 .485-.092.666-.27l7.196-7.102c.36-.356.355-.929-.013-1.279-.367-.349-.958-.344-1.32.012z"/>
            </g>
        </g>
    </g>
</svg>
